<mxfile host="app.diagrams.net" modified="2023-09-14T04:20:46.251Z" agent="Mozilla/5.0 (Windows NT 10.0; Win64; x64) AppleWebKit/537.36 (KHTML, like Gecko) Chrome/116.0.0.0 Safari/537.36" etag="bNdwHQqDp-668FI22krR" version="21.7.5" type="github">
  <diagram id="C5RBs43oDa-KdzZeNtuy" name="Page-1">
    <mxGraphModel dx="2643" dy="517" grid="1" gridSize="10" guides="1" tooltips="1" connect="1" arrows="1" fold="1" page="1" pageScale="1" pageWidth="827" pageHeight="1169" math="0" shadow="0">
      <root>
        <mxCell id="WIyWlLk6GJQsqaUBKTNV-0" />
        <mxCell id="WIyWlLk6GJQsqaUBKTNV-1" parent="WIyWlLk6GJQsqaUBKTNV-0" />
        <mxCell id="PoSFbFDupnsgPoYH0YT1-2" value="" style="edgeStyle=orthogonalEdgeStyle;rounded=0;orthogonalLoop=1;jettySize=auto;html=1;" parent="WIyWlLk6GJQsqaUBKTNV-1" source="PoSFbFDupnsgPoYH0YT1-0" target="PoSFbFDupnsgPoYH0YT1-1" edge="1">
          <mxGeometry relative="1" as="geometry" />
        </mxCell>
        <mxCell id="PoSFbFDupnsgPoYH0YT1-0" value="&lt;font style=&quot;font-size: 17px;&quot;&gt;Start&lt;/font&gt;" style="strokeWidth=2;html=1;shape=mxgraph.flowchart.terminator;whiteSpace=wrap;" parent="WIyWlLk6GJQsqaUBKTNV-1" vertex="1">
          <mxGeometry x="310" y="80" width="100" height="60" as="geometry" />
        </mxCell>
        <mxCell id="PoSFbFDupnsgPoYH0YT1-4" value="" style="edgeStyle=orthogonalEdgeStyle;rounded=0;orthogonalLoop=1;jettySize=auto;html=1;" parent="WIyWlLk6GJQsqaUBKTNV-1" source="PoSFbFDupnsgPoYH0YT1-1" target="PoSFbFDupnsgPoYH0YT1-111" edge="1">
          <mxGeometry relative="1" as="geometry">
            <mxPoint x="360" y="330" as="targetPoint" />
          </mxGeometry>
        </mxCell>
        <mxCell id="PoSFbFDupnsgPoYH0YT1-1" value="Menu &lt;br&gt;Employee" style="shape=parallelogram;html=1;strokeWidth=2;perimeter=parallelogramPerimeter;whiteSpace=wrap;rounded=1;arcSize=12;size=0.23;" parent="WIyWlLk6GJQsqaUBKTNV-1" vertex="1">
          <mxGeometry x="310" y="210" width="100" height="60" as="geometry" />
        </mxCell>
        <mxCell id="PoSFbFDupnsgPoYH0YT1-11" value="" style="edgeStyle=orthogonalEdgeStyle;rounded=0;orthogonalLoop=1;jettySize=auto;html=1;" parent="WIyWlLk6GJQsqaUBKTNV-1" source="PoSFbFDupnsgPoYH0YT1-111" target="PoSFbFDupnsgPoYH0YT1-40" edge="1">
          <mxGeometry relative="1" as="geometry">
            <mxPoint x="360" y="390" as="sourcePoint" />
            <mxPoint x="360" y="460" as="targetPoint" />
          </mxGeometry>
        </mxCell>
        <mxCell id="PoSFbFDupnsgPoYH0YT1-27" style="edgeStyle=orthogonalEdgeStyle;rounded=0;orthogonalLoop=1;jettySize=auto;html=1;entryX=1;entryY=0.5;entryDx=0;entryDy=0;entryPerimeter=0;" parent="WIyWlLk6GJQsqaUBKTNV-1" source="PoSFbFDupnsgPoYH0YT1-58" target="PoSFbFDupnsgPoYH0YT1-102" edge="1">
          <mxGeometry relative="1" as="geometry">
            <mxPoint x="1250.0588235294117" y="485" as="sourcePoint" />
            <Array as="points">
              <mxPoint x="1250" y="1300" />
            </Array>
          </mxGeometry>
        </mxCell>
        <mxCell id="PoSFbFDupnsgPoYH0YT1-59" value="" style="edgeStyle=orthogonalEdgeStyle;rounded=0;orthogonalLoop=1;jettySize=auto;html=1;" parent="WIyWlLk6GJQsqaUBKTNV-1" source="PoSFbFDupnsgPoYH0YT1-40" target="PoSFbFDupnsgPoYH0YT1-45" edge="1">
          <mxGeometry relative="1" as="geometry" />
        </mxCell>
        <mxCell id="PoSFbFDupnsgPoYH0YT1-40" value="Data Employee" style="strokeWidth=2;html=1;shape=mxgraph.flowchart.database;whiteSpace=wrap;" parent="WIyWlLk6GJQsqaUBKTNV-1" vertex="1">
          <mxGeometry x="315" y="460" width="90" height="70" as="geometry" />
        </mxCell>
        <mxCell id="PoSFbFDupnsgPoYH0YT1-61" value="" style="edgeStyle=orthogonalEdgeStyle;rounded=0;orthogonalLoop=1;jettySize=auto;html=1;" parent="WIyWlLk6GJQsqaUBKTNV-1" source="PoSFbFDupnsgPoYH0YT1-41" target="PoSFbFDupnsgPoYH0YT1-60" edge="1">
          <mxGeometry relative="1" as="geometry" />
        </mxCell>
        <mxCell id="PoSFbFDupnsgPoYH0YT1-41" value="Data" style="shape=parallelogram;html=1;strokeWidth=2;perimeter=parallelogramPerimeter;whiteSpace=wrap;rounded=1;arcSize=12;size=0.23;" parent="WIyWlLk6GJQsqaUBKTNV-1" vertex="1">
          <mxGeometry x="310" y="740" width="100" height="60" as="geometry" />
        </mxCell>
        <mxCell id="PoSFbFDupnsgPoYH0YT1-42" value="Ya" style="edgeStyle=orthogonalEdgeStyle;rounded=0;orthogonalLoop=1;jettySize=auto;html=1;" parent="WIyWlLk6GJQsqaUBKTNV-1" source="PoSFbFDupnsgPoYH0YT1-45" target="PoSFbFDupnsgPoYH0YT1-41" edge="1">
          <mxGeometry relative="1" as="geometry" />
        </mxCell>
        <mxCell id="PoSFbFDupnsgPoYH0YT1-43" value="" style="edgeStyle=orthogonalEdgeStyle;rounded=0;orthogonalLoop=1;jettySize=auto;html=1;" parent="WIyWlLk6GJQsqaUBKTNV-1" source="PoSFbFDupnsgPoYH0YT1-45" target="PoSFbFDupnsgPoYH0YT1-47" edge="1">
          <mxGeometry relative="1" as="geometry" />
        </mxCell>
        <mxCell id="PoSFbFDupnsgPoYH0YT1-44" value="Tidak" style="edgeLabel;html=1;align=center;verticalAlign=middle;resizable=0;points=[];" parent="PoSFbFDupnsgPoYH0YT1-43" vertex="1" connectable="0">
          <mxGeometry x="-0.097" y="-3" relative="1" as="geometry">
            <mxPoint y="-3" as="offset" />
          </mxGeometry>
        </mxCell>
        <mxCell id="PoSFbFDupnsgPoYH0YT1-45" value="Data &lt;br&gt;tersedia?" style="strokeWidth=2;html=1;shape=mxgraph.flowchart.decision;whiteSpace=wrap;" parent="WIyWlLk6GJQsqaUBKTNV-1" vertex="1">
          <mxGeometry x="310" y="590" width="100" height="100" as="geometry" />
        </mxCell>
        <mxCell id="PoSFbFDupnsgPoYH0YT1-46" value="" style="edgeStyle=orthogonalEdgeStyle;rounded=0;orthogonalLoop=1;jettySize=auto;html=1;" parent="WIyWlLk6GJQsqaUBKTNV-1" source="PoSFbFDupnsgPoYH0YT1-47" target="PoSFbFDupnsgPoYH0YT1-49" edge="1">
          <mxGeometry relative="1" as="geometry" />
        </mxCell>
        <mxCell id="PoSFbFDupnsgPoYH0YT1-47" value="Form&lt;br&gt;add Data&lt;br&gt;Employee" style="shape=parallelogram;html=1;strokeWidth=2;perimeter=parallelogramPerimeter;whiteSpace=wrap;rounded=1;arcSize=12;size=0.23;" parent="WIyWlLk6GJQsqaUBKTNV-1" vertex="1">
          <mxGeometry x="500" y="610" width="100" height="60" as="geometry" />
        </mxCell>
        <mxCell id="PoSFbFDupnsgPoYH0YT1-48" value="" style="edgeStyle=orthogonalEdgeStyle;rounded=0;orthogonalLoop=1;jettySize=auto;html=1;" parent="WIyWlLk6GJQsqaUBKTNV-1" source="PoSFbFDupnsgPoYH0YT1-49" target="PoSFbFDupnsgPoYH0YT1-53" edge="1">
          <mxGeometry relative="1" as="geometry" />
        </mxCell>
        <mxCell id="PoSFbFDupnsgPoYH0YT1-49" value="validasi Data" style="rounded=1;whiteSpace=wrap;html=1;absoluteArcSize=1;arcSize=14;strokeWidth=2;" parent="WIyWlLk6GJQsqaUBKTNV-1" vertex="1">
          <mxGeometry x="650" y="610" width="60" height="60" as="geometry" />
        </mxCell>
        <mxCell id="PoSFbFDupnsgPoYH0YT1-50" style="edgeStyle=orthogonalEdgeStyle;rounded=0;orthogonalLoop=1;jettySize=auto;html=1;" parent="WIyWlLk6GJQsqaUBKTNV-1" source="PoSFbFDupnsgPoYH0YT1-53" target="PoSFbFDupnsgPoYH0YT1-47" edge="1">
          <mxGeometry relative="1" as="geometry">
            <Array as="points">
              <mxPoint x="815" y="720" />
              <mxPoint x="550" y="720" />
            </Array>
          </mxGeometry>
        </mxCell>
        <mxCell id="PoSFbFDupnsgPoYH0YT1-51" value="Tidak" style="edgeLabel;html=1;align=center;verticalAlign=middle;resizable=0;points=[];" parent="PoSFbFDupnsgPoYH0YT1-50" vertex="1" connectable="0">
          <mxGeometry x="-0.0076" relative="1" as="geometry">
            <mxPoint as="offset" />
          </mxGeometry>
        </mxCell>
        <mxCell id="PoSFbFDupnsgPoYH0YT1-52" value="YA" style="edgeStyle=orthogonalEdgeStyle;rounded=0;orthogonalLoop=1;jettySize=auto;html=1;" parent="WIyWlLk6GJQsqaUBKTNV-1" source="PoSFbFDupnsgPoYH0YT1-53" target="PoSFbFDupnsgPoYH0YT1-113" edge="1">
          <mxGeometry relative="1" as="geometry">
            <mxPoint x="910" y="640" as="targetPoint" />
          </mxGeometry>
        </mxCell>
        <mxCell id="PoSFbFDupnsgPoYH0YT1-53" value="Valid?" style="rhombus;whiteSpace=wrap;html=1;rounded=1;arcSize=14;strokeWidth=2;" parent="WIyWlLk6GJQsqaUBKTNV-1" vertex="1">
          <mxGeometry x="780" y="605" width="70" height="70" as="geometry" />
        </mxCell>
        <mxCell id="PoSFbFDupnsgPoYH0YT1-54" value="" style="edgeStyle=orthogonalEdgeStyle;rounded=0;orthogonalLoop=1;jettySize=auto;html=1;" parent="WIyWlLk6GJQsqaUBKTNV-1" source="PoSFbFDupnsgPoYH0YT1-113" target="PoSFbFDupnsgPoYH0YT1-57" edge="1">
          <mxGeometry relative="1" as="geometry">
            <mxPoint x="1070" y="640" as="targetPoint" />
            <mxPoint x="993.3299999999999" y="640" as="sourcePoint" />
          </mxGeometry>
        </mxCell>
        <mxCell id="PoSFbFDupnsgPoYH0YT1-56" value="" style="edgeStyle=orthogonalEdgeStyle;rounded=0;orthogonalLoop=1;jettySize=auto;html=1;" parent="WIyWlLk6GJQsqaUBKTNV-1" source="PoSFbFDupnsgPoYH0YT1-57" target="PoSFbFDupnsgPoYH0YT1-58" edge="1">
          <mxGeometry relative="1" as="geometry" />
        </mxCell>
        <mxCell id="PoSFbFDupnsgPoYH0YT1-57" value="Data Employee" style="strokeWidth=2;html=1;shape=mxgraph.flowchart.database;whiteSpace=wrap;" parent="WIyWlLk6GJQsqaUBKTNV-1" vertex="1">
          <mxGeometry x="1060" y="605" width="90" height="70" as="geometry" />
        </mxCell>
        <mxCell id="PoSFbFDupnsgPoYH0YT1-58" value="Notif data Tersimpan" style="strokeWidth=2;html=1;shape=mxgraph.flowchart.display;whiteSpace=wrap;" parent="WIyWlLk6GJQsqaUBKTNV-1" vertex="1">
          <mxGeometry x="1210" y="615" width="83.33" height="50" as="geometry" />
        </mxCell>
        <mxCell id="PoSFbFDupnsgPoYH0YT1-65" value="" style="edgeStyle=orthogonalEdgeStyle;rounded=0;orthogonalLoop=1;jettySize=auto;html=1;" parent="WIyWlLk6GJQsqaUBKTNV-1" source="PoSFbFDupnsgPoYH0YT1-60" target="PoSFbFDupnsgPoYH0YT1-64" edge="1">
          <mxGeometry relative="1" as="geometry" />
        </mxCell>
        <mxCell id="PoSFbFDupnsgPoYH0YT1-100" value="" style="edgeStyle=orthogonalEdgeStyle;rounded=0;orthogonalLoop=1;jettySize=auto;html=1;" parent="WIyWlLk6GJQsqaUBKTNV-1" source="PoSFbFDupnsgPoYH0YT1-60" target="PoSFbFDupnsgPoYH0YT1-62" edge="1">
          <mxGeometry relative="1" as="geometry" />
        </mxCell>
        <mxCell id="PoSFbFDupnsgPoYH0YT1-60" value="Edit" style="strokeWidth=2;html=1;shape=mxgraph.flowchart.decision;whiteSpace=wrap;" parent="WIyWlLk6GJQsqaUBKTNV-1" vertex="1">
          <mxGeometry x="310" y="850" width="100" height="100" as="geometry" />
        </mxCell>
        <mxCell id="PoSFbFDupnsgPoYH0YT1-85" value="" style="edgeStyle=orthogonalEdgeStyle;rounded=0;orthogonalLoop=1;jettySize=auto;html=1;" parent="WIyWlLk6GJQsqaUBKTNV-1" source="PoSFbFDupnsgPoYH0YT1-62" target="PoSFbFDupnsgPoYH0YT1-81" edge="1">
          <mxGeometry relative="1" as="geometry" />
        </mxCell>
        <mxCell id="PoSFbFDupnsgPoYH0YT1-103" value="" style="edgeStyle=orthogonalEdgeStyle;rounded=0;orthogonalLoop=1;jettySize=auto;html=1;" parent="WIyWlLk6GJQsqaUBKTNV-1" source="PoSFbFDupnsgPoYH0YT1-62" target="PoSFbFDupnsgPoYH0YT1-102" edge="1">
          <mxGeometry relative="1" as="geometry" />
        </mxCell>
        <mxCell id="PoSFbFDupnsgPoYH0YT1-62" value="Delete" style="strokeWidth=2;html=1;shape=mxgraph.flowchart.decision;whiteSpace=wrap;" parent="WIyWlLk6GJQsqaUBKTNV-1" vertex="1">
          <mxGeometry x="310" y="1000" width="100" height="100" as="geometry" />
        </mxCell>
        <mxCell id="PoSFbFDupnsgPoYH0YT1-69" value="" style="edgeStyle=orthogonalEdgeStyle;rounded=0;orthogonalLoop=1;jettySize=auto;html=1;" parent="WIyWlLk6GJQsqaUBKTNV-1" source="PoSFbFDupnsgPoYH0YT1-64" target="PoSFbFDupnsgPoYH0YT1-68" edge="1">
          <mxGeometry relative="1" as="geometry" />
        </mxCell>
        <mxCell id="PoSFbFDupnsgPoYH0YT1-64" value="proses Pengambilan data" style="shape=process;whiteSpace=wrap;html=1;backgroundOutline=1;strokeWidth=2;" parent="WIyWlLk6GJQsqaUBKTNV-1" vertex="1">
          <mxGeometry x="140" y="870" width="120" height="60" as="geometry" />
        </mxCell>
        <mxCell id="PoSFbFDupnsgPoYH0YT1-71" value="" style="edgeStyle=orthogonalEdgeStyle;rounded=0;orthogonalLoop=1;jettySize=auto;html=1;" parent="WIyWlLk6GJQsqaUBKTNV-1" source="PoSFbFDupnsgPoYH0YT1-68" target="PoSFbFDupnsgPoYH0YT1-112" edge="1">
          <mxGeometry relative="1" as="geometry">
            <mxPoint x="-70" y="900" as="targetPoint" />
          </mxGeometry>
        </mxCell>
        <mxCell id="PoSFbFDupnsgPoYH0YT1-68" value="Data Employee" style="strokeWidth=2;html=1;shape=mxgraph.flowchart.database;whiteSpace=wrap;" parent="WIyWlLk6GJQsqaUBKTNV-1" vertex="1">
          <mxGeometry x="-10" y="865" width="90" height="70" as="geometry" />
        </mxCell>
        <mxCell id="PoSFbFDupnsgPoYH0YT1-89" value="" style="edgeStyle=orthogonalEdgeStyle;rounded=0;orthogonalLoop=1;jettySize=auto;html=1;" parent="WIyWlLk6GJQsqaUBKTNV-1" source="PoSFbFDupnsgPoYH0YT1-72" target="xr3lGzWg7pX0g5s_b27O-1" edge="1">
          <mxGeometry relative="1" as="geometry">
            <mxPoint x="-396.6700000000001" y="900.0344827586207" as="targetPoint" />
          </mxGeometry>
        </mxCell>
        <mxCell id="PoSFbFDupnsgPoYH0YT1-72" value="Form Edit data&lt;br&gt;Employee" style="shape=parallelogram;html=1;strokeWidth=2;perimeter=parallelogramPerimeter;whiteSpace=wrap;rounded=1;arcSize=12;size=0.23;" parent="WIyWlLk6GJQsqaUBKTNV-1" vertex="1">
          <mxGeometry x="-350" y="865" width="120" height="72" as="geometry" />
        </mxCell>
        <mxCell id="PoSFbFDupnsgPoYH0YT1-74" value="" style="edgeStyle=orthogonalEdgeStyle;rounded=0;orthogonalLoop=1;jettySize=auto;html=1;" parent="WIyWlLk6GJQsqaUBKTNV-1" source="xr3lGzWg7pX0g5s_b27O-1" target="PoSFbFDupnsgPoYH0YT1-77" edge="1">
          <mxGeometry relative="1" as="geometry">
            <mxPoint x="-590" y="905" as="targetPoint" />
            <mxPoint x="-480" y="899.9999999999998" as="sourcePoint" />
          </mxGeometry>
        </mxCell>
        <mxCell id="PoSFbFDupnsgPoYH0YT1-76" value="" style="edgeStyle=orthogonalEdgeStyle;rounded=0;orthogonalLoop=1;jettySize=auto;html=1;" parent="WIyWlLk6GJQsqaUBKTNV-1" source="PoSFbFDupnsgPoYH0YT1-77" target="PoSFbFDupnsgPoYH0YT1-78" edge="1">
          <mxGeometry relative="1" as="geometry" />
        </mxCell>
        <mxCell id="PoSFbFDupnsgPoYH0YT1-77" value="Data Employee" style="strokeWidth=2;html=1;shape=mxgraph.flowchart.database;whiteSpace=wrap;" parent="WIyWlLk6GJQsqaUBKTNV-1" vertex="1">
          <mxGeometry x="-610" y="865" width="90" height="70" as="geometry" />
        </mxCell>
        <mxCell id="PoSFbFDupnsgPoYH0YT1-101" style="edgeStyle=orthogonalEdgeStyle;rounded=0;orthogonalLoop=1;jettySize=auto;html=1;" parent="WIyWlLk6GJQsqaUBKTNV-1" source="PoSFbFDupnsgPoYH0YT1-78" target="PoSFbFDupnsgPoYH0YT1-102" edge="1">
          <mxGeometry relative="1" as="geometry">
            <mxPoint x="370" y="1330" as="targetPoint" />
            <Array as="points">
              <mxPoint x="-860" y="900" />
              <mxPoint x="-860" y="1300" />
            </Array>
          </mxGeometry>
        </mxCell>
        <mxCell id="PoSFbFDupnsgPoYH0YT1-78" value="Notif Tersimpan" style="strokeWidth=2;html=1;shape=mxgraph.flowchart.display;whiteSpace=wrap;" parent="WIyWlLk6GJQsqaUBKTNV-1" vertex="1">
          <mxGeometry x="-740" y="875" width="83.33" height="50" as="geometry" />
        </mxCell>
        <mxCell id="PoSFbFDupnsgPoYH0YT1-80" value="" style="edgeStyle=orthogonalEdgeStyle;rounded=0;orthogonalLoop=1;jettySize=auto;html=1;" parent="WIyWlLk6GJQsqaUBKTNV-1" source="PoSFbFDupnsgPoYH0YT1-81" target="PoSFbFDupnsgPoYH0YT1-83" edge="1">
          <mxGeometry relative="1" as="geometry" />
        </mxCell>
        <mxCell id="PoSFbFDupnsgPoYH0YT1-81" value="proses Pengambilan data" style="shape=process;whiteSpace=wrap;html=1;backgroundOutline=1;strokeWidth=2;" parent="WIyWlLk6GJQsqaUBKTNV-1" vertex="1">
          <mxGeometry x="140" y="1020" width="120" height="60" as="geometry" />
        </mxCell>
        <mxCell id="PoSFbFDupnsgPoYH0YT1-82" value="" style="edgeStyle=orthogonalEdgeStyle;rounded=0;orthogonalLoop=1;jettySize=auto;html=1;" parent="WIyWlLk6GJQsqaUBKTNV-1" source="PoSFbFDupnsgPoYH0YT1-83" target="PoSFbFDupnsgPoYH0YT1-114" edge="1">
          <mxGeometry relative="1" as="geometry">
            <mxPoint x="-70" y="1050" as="targetPoint" />
          </mxGeometry>
        </mxCell>
        <mxCell id="PoSFbFDupnsgPoYH0YT1-83" value="Data Employee" style="strokeWidth=2;html=1;shape=mxgraph.flowchart.database;whiteSpace=wrap;" parent="WIyWlLk6GJQsqaUBKTNV-1" vertex="1">
          <mxGeometry x="-10" y="1015" width="90" height="70" as="geometry" />
        </mxCell>
        <mxCell id="PoSFbFDupnsgPoYH0YT1-87" value="" style="edgeStyle=orthogonalEdgeStyle;rounded=0;orthogonalLoop=1;jettySize=auto;html=1;" parent="WIyWlLk6GJQsqaUBKTNV-1" source="PoSFbFDupnsgPoYH0YT1-114" target="PoSFbFDupnsgPoYH0YT1-86" edge="1">
          <mxGeometry relative="1" as="geometry">
            <mxPoint x="-190" y="1050" as="sourcePoint" />
            <Array as="points">
              <mxPoint x="-215" y="1051" />
              <mxPoint x="-215" y="1050" />
            </Array>
          </mxGeometry>
        </mxCell>
        <mxCell id="PoSFbFDupnsgPoYH0YT1-91" value="" style="edgeStyle=orthogonalEdgeStyle;rounded=0;orthogonalLoop=1;jettySize=auto;html=1;" parent="WIyWlLk6GJQsqaUBKTNV-1" source="PoSFbFDupnsgPoYH0YT1-86" target="PoSFbFDupnsgPoYH0YT1-90" edge="1">
          <mxGeometry relative="1" as="geometry" />
        </mxCell>
        <mxCell id="PoSFbFDupnsgPoYH0YT1-86" value="Notif data akan dihapuskan" style="strokeWidth=2;html=1;shape=mxgraph.flowchart.display;whiteSpace=wrap;" parent="WIyWlLk6GJQsqaUBKTNV-1" vertex="1">
          <mxGeometry x="-340" y="1020" width="100" height="60" as="geometry" />
        </mxCell>
        <mxCell id="PoSFbFDupnsgPoYH0YT1-96" value="Ya" style="edgeStyle=orthogonalEdgeStyle;rounded=0;orthogonalLoop=1;jettySize=auto;html=1;" parent="WIyWlLk6GJQsqaUBKTNV-1" source="PoSFbFDupnsgPoYH0YT1-90" target="xr3lGzWg7pX0g5s_b27O-0" edge="1">
          <mxGeometry relative="1" as="geometry">
            <mxPoint x="-536.6700000000001" y="1050" as="targetPoint" />
          </mxGeometry>
        </mxCell>
        <mxCell id="PoSFbFDupnsgPoYH0YT1-104" style="edgeStyle=orthogonalEdgeStyle;rounded=0;orthogonalLoop=1;jettySize=auto;html=1;" parent="WIyWlLk6GJQsqaUBKTNV-1" source="PoSFbFDupnsgPoYH0YT1-90" edge="1">
          <mxGeometry relative="1" as="geometry">
            <mxPoint x="-280" y="1190" as="targetPoint" />
            <Array as="points">
              <mxPoint x="-440" y="1190" />
            </Array>
          </mxGeometry>
        </mxCell>
        <mxCell id="PoSFbFDupnsgPoYH0YT1-90" value="Data &lt;br&gt;Dihapus?" style="strokeWidth=2;html=1;shape=mxgraph.flowchart.decision;whiteSpace=wrap;" parent="WIyWlLk6GJQsqaUBKTNV-1" vertex="1">
          <mxGeometry x="-488.33" y="1000" width="100" height="100" as="geometry" />
        </mxCell>
        <mxCell id="PoSFbFDupnsgPoYH0YT1-108" value="" style="edgeStyle=orthogonalEdgeStyle;rounded=0;orthogonalLoop=1;jettySize=auto;html=1;" parent="WIyWlLk6GJQsqaUBKTNV-1" source="PoSFbFDupnsgPoYH0YT1-94" target="PoSFbFDupnsgPoYH0YT1-107" edge="1">
          <mxGeometry relative="1" as="geometry" />
        </mxCell>
        <mxCell id="PoSFbFDupnsgPoYH0YT1-94" value="Data Employee" style="strokeWidth=2;html=1;shape=mxgraph.flowchart.database;whiteSpace=wrap;" parent="WIyWlLk6GJQsqaUBKTNV-1" vertex="1">
          <mxGeometry x="-800" y="1015" width="90" height="70" as="geometry" />
        </mxCell>
        <mxCell id="PoSFbFDupnsgPoYH0YT1-97" value="" style="edgeStyle=orthogonalEdgeStyle;rounded=0;orthogonalLoop=1;jettySize=auto;html=1;" parent="WIyWlLk6GJQsqaUBKTNV-1" source="xr3lGzWg7pX0g5s_b27O-0" target="PoSFbFDupnsgPoYH0YT1-94" edge="1">
          <mxGeometry relative="1" as="geometry">
            <mxPoint x="-656.6699999999998" y="1050" as="sourcePoint" />
          </mxGeometry>
        </mxCell>
        <mxCell id="PoSFbFDupnsgPoYH0YT1-102" value="End" style="strokeWidth=2;html=1;shape=mxgraph.flowchart.terminator;whiteSpace=wrap;" parent="WIyWlLk6GJQsqaUBKTNV-1" vertex="1">
          <mxGeometry x="310" y="1270" width="100" height="60" as="geometry" />
        </mxCell>
        <mxCell id="PoSFbFDupnsgPoYH0YT1-106" style="edgeStyle=orthogonalEdgeStyle;rounded=0;orthogonalLoop=1;jettySize=auto;html=1;" parent="WIyWlLk6GJQsqaUBKTNV-1" source="PoSFbFDupnsgPoYH0YT1-105" target="PoSFbFDupnsgPoYH0YT1-102" edge="1">
          <mxGeometry relative="1" as="geometry" />
        </mxCell>
        <mxCell id="PoSFbFDupnsgPoYH0YT1-105" value="Notif data gagal dihpus" style="strokeWidth=2;html=1;shape=mxgraph.flowchart.display;whiteSpace=wrap;" parent="WIyWlLk6GJQsqaUBKTNV-1" vertex="1">
          <mxGeometry x="-280" y="1160" width="100" height="60" as="geometry" />
        </mxCell>
        <mxCell id="PoSFbFDupnsgPoYH0YT1-110" style="edgeStyle=orthogonalEdgeStyle;rounded=0;orthogonalLoop=1;jettySize=auto;html=1;exitX=0.5;exitY=1;exitDx=0;exitDy=0;exitPerimeter=0;entryX=0;entryY=0.5;entryDx=0;entryDy=0;entryPerimeter=0;" parent="WIyWlLk6GJQsqaUBKTNV-1" source="PoSFbFDupnsgPoYH0YT1-107" target="PoSFbFDupnsgPoYH0YT1-102" edge="1">
          <mxGeometry relative="1" as="geometry" />
        </mxCell>
        <mxCell id="PoSFbFDupnsgPoYH0YT1-107" value="Notif&lt;br&gt;Data Terhapus" style="strokeWidth=2;html=1;shape=mxgraph.flowchart.display;whiteSpace=wrap;" parent="WIyWlLk6GJQsqaUBKTNV-1" vertex="1">
          <mxGeometry x="-805" y="1190" width="100" height="60" as="geometry" />
        </mxCell>
        <mxCell id="PoSFbFDupnsgPoYH0YT1-111" value="proses Pengambilan data" style="shape=process;whiteSpace=wrap;html=1;backgroundOutline=1;strokeWidth=2;" parent="WIyWlLk6GJQsqaUBKTNV-1" vertex="1">
          <mxGeometry x="300" y="330" width="120" height="60" as="geometry" />
        </mxCell>
        <mxCell id="PoSFbFDupnsgPoYH0YT1-115" value="" style="edgeStyle=orthogonalEdgeStyle;rounded=0;orthogonalLoop=1;jettySize=auto;html=1;" parent="WIyWlLk6GJQsqaUBKTNV-1" source="PoSFbFDupnsgPoYH0YT1-112" target="PoSFbFDupnsgPoYH0YT1-72" edge="1">
          <mxGeometry relative="1" as="geometry" />
        </mxCell>
        <mxCell id="PoSFbFDupnsgPoYH0YT1-112" value="Data didapatkan" style="shape=process;whiteSpace=wrap;html=1;backgroundOutline=1;strokeWidth=2;" parent="WIyWlLk6GJQsqaUBKTNV-1" vertex="1">
          <mxGeometry x="-190" y="871" width="120" height="60" as="geometry" />
        </mxCell>
        <mxCell id="PoSFbFDupnsgPoYH0YT1-113" value="proses Data disimpan" style="shape=process;whiteSpace=wrap;html=1;backgroundOutline=1;strokeWidth=2;" parent="WIyWlLk6GJQsqaUBKTNV-1" vertex="1">
          <mxGeometry x="900.0000000000001" y="610" width="120" height="60" as="geometry" />
        </mxCell>
        <mxCell id="PoSFbFDupnsgPoYH0YT1-114" value="Data didapatkan" style="shape=process;whiteSpace=wrap;html=1;backgroundOutline=1;strokeWidth=2;" parent="WIyWlLk6GJQsqaUBKTNV-1" vertex="1">
          <mxGeometry x="-190" y="1020" width="120" height="60" as="geometry" />
        </mxCell>
        <mxCell id="xr3lGzWg7pX0g5s_b27O-0" value="proses Data dihapus" style="shape=process;whiteSpace=wrap;html=1;backgroundOutline=1;strokeWidth=2;" vertex="1" parent="WIyWlLk6GJQsqaUBKTNV-1">
          <mxGeometry x="-656.6699999999998" y="1020" width="120" height="60" as="geometry" />
        </mxCell>
        <mxCell id="xr3lGzWg7pX0g5s_b27O-1" value="proses Data diupdate" style="shape=process;whiteSpace=wrap;html=1;backgroundOutline=1;strokeWidth=2;" vertex="1" parent="WIyWlLk6GJQsqaUBKTNV-1">
          <mxGeometry x="-498.3299999999998" y="870" width="120" height="60" as="geometry" />
        </mxCell>
      </root>
    </mxGraphModel>
  </diagram>
</mxfile>
